<?xml version="1.0" encoding="utf-8"?>
<!-- Generator: Adobe Illustrator 26.0.1, SVG Export Plug-In . SVG Version: 6.00 Build 0)  -->
<svg version="1.1" id="レイヤー_1" xmlns="http://www.w3.org/2000/svg" xmlns:xlink="http://www.w3.org/1999/xlink" x="0px"
	 y="0px" viewBox="0 0 400 100" style="enable-background:new 0 0 400 100;" xml:space="preserve">
<style type="text/css">
	.st0{fill:none;stroke:#FFFFFF;stroke-miterlimit:10;}
</style>
<g>
	<path class="st0" d="M19.03,84.73c-2.25,0-3.24-0.99-3.24-3.24V23.17c0-2.25,0.99-3.24,3.24-3.24h28.71
		c11.79,0,17.28,4.32,17.28,13.77v4.32c0,5.04-1.71,8.19-5.31,9.72c7.74,0.72,11.34,5.13,11.34,13.95v8.28
		c0,10.08-5.49,14.76-17.46,14.76H19.03z M36.04,44.95h7.65c2.34,0,3.42-1.17,3.42-3.6v-2.52c0-2.43-1.08-3.6-3.42-3.6h-7.65V44.95z
		 M36.04,69.43h11.7c2.34,0,3.42-1.17,3.42-3.6v-3.51c0-2.43-1.08-3.51-3.42-3.51h-11.7V69.43z"/>
	<path class="st0" d="M84.28,84.73c-2.25,0-3.24-0.99-3.24-3.24V23.17c0-2.25,0.99-3.24,3.24-3.24h41.76c2.25,0,3.24,0.99,3.24,3.24
		V33.7c0,2.25-0.99,3.24-3.24,3.24H101.2v6.93h17.55c2.25,0,3.24,0.99,3.24,3.24v9.63c0,2.25-0.99,3.24-3.24,3.24H101.2v7.74h24.84
		c2.25,0,3.24,0.99,3.24,3.24v10.53c0,2.25-0.99,3.24-3.24,3.24H84.28z"/>
	<path class="st0" d="M143.14,84.73c-2.25,0-3.24-0.99-3.24-3.24V23.17c0-2.25,0.99-3.24,3.24-3.24h13.95
		c2.25,0,3.24,0.99,3.24,3.24v44.55h12.33V53.14c0-2.25,0.99-3.24,3.24-3.24h13.05c2.25,0,3.24,0.99,3.24,3.24v28.35
		c0,2.25-0.99,3.24-3.24,3.24H143.14z"/>
	<path class="st0" d="M229.81,86.08c-22.32,0-27.81-7.38-27.81-18.36V23.17c0-2.25,0.99-3.24,3.24-3.24h14.13
		c2.25,0,3.24,0.99,3.24,3.24v41.04c0,2.43,1.08,4.23,7.38,4.23c6.39,0,7.47-1.8,7.47-4.23V23.17c0-2.25,0.9-3.24,3.24-3.24h13.68
		c2.25,0,3.24,0.99,3.24,3.24v44.55C257.62,78.7,252.13,86.08,229.81,86.08z"/>
	<path class="st0" d="M290.74,84.73c-15.12,0-22.14-5.85-22.14-18.36V38.29c0-12.51,7.02-18.36,22.14-18.36h22.5
		c2.25,0,3.24,0.99,3.24,3.24v10.89c0,2.25-0.99,3.24-3.24,3.24h-18.72c-3.78,0-5.49,1.44-5.49,4.5v21.51
		c0,3.06,1.35,4.41,4.14,4.41h8.73V53.68c0-2.25,0.99-3.24,3.24-3.24h13.95c2.25,0,3.24,0.99,3.24,3.24v27.81
		c0,2.25-0.99,3.24-3.24,3.24H290.74z"/>
	<path class="st0" d="M348.43,84.73H335.2c-2.25,0-3.24-0.99-3.24-3.24V57.73c0-3.6,1.08-8.1,3.51-14.4l7.83-20.43
		c0.72-2.07,2.16-2.97,4.59-2.97h24.21c2.34,0,3.78,0.9,4.5,2.97l7.83,20.43c2.43,6.3,3.51,10.8,3.51,14.4v23.76
		c0,2.25-0.99,3.24-3.24,3.24H371.1c-2.43,0-3.51-0.99-3.51-3.24v-12.6h-15.93v12.6C351.67,83.74,350.68,84.73,348.43,84.73z
		 M352.57,52.51h14.13l-4.23-13.68c-0.45-1.08-0.99-1.53-1.71-1.53h-2.25c-0.72,0-1.26,0.45-1.71,1.53L352.57,52.51z"/>
</g>
</svg>
