<svg xmlns="http://www.w3.org/2000/svg" width="17.503mm" height="3.11mm" viewBox="0 0 49.615 8.815">
  <g>
    <path d="M23.582,85.387c-.3,0-.432-.132-.432-.431V77.184c0-.3.132-.432.432-.432h3.826c1.571,0,2.3.576,2.3,1.835v.576a1.239,1.239,0,0,1-.708,1.3c1.032.1,1.511.684,1.511,1.859v1.1c0,1.344-.731,1.967-2.326,1.967Zm2.267-5.3h1.019c.312,0,.456-.156.456-.48v-.335c0-.324-.144-.48-.456-.48H25.849Zm0,3.262h1.559c.312,0,.456-.156.456-.479V82.4c0-.324-.144-.468-.456-.468H25.849Z" transform="translate(-23.15 -76.752)" fill="#fff"/>
    <path d="M32.282,85.387c-.3,0-.432-.132-.432-.431V77.184c0-.3.132-.432.432-.432h5.565c.3,0,.431.132.431.432v1.4c0,.3-.132.432-.431.432h-3.31v.923h2.338c.3,0,.432.132.432.432v1.283c0,.3-.132.432-.432.432H34.537v1.032h3.31c.3,0,.431.131.431.431v1.4c0,.3-.132.431-.431.431Z" transform="translate(-23.15 -76.752)" fill="#fff"/>
    <path d="M40.129,85.387c-.3,0-.431-.132-.431-.431V77.184c0-.3.132-.432.431-.432h1.859c.3,0,.432.132.432.432v5.937h1.643V81.178c0-.3.132-.432.432-.432h1.739c.3,0,.432.132.432.432v3.778c0,.3-.132.431-.432.431Z" transform="translate(-23.15 -76.752)" fill="#fff"/>
    <path d="M51.684,85.567c-2.975,0-3.706-.984-3.706-2.446V77.184c0-.3.131-.432.431-.432h1.883c.3,0,.432.132.432.432v5.469c0,.324.144.563.984.563s1-.239,1-.563V77.184c0-.3.12-.432.432-.432h1.823c.3,0,.432.132.432.432v5.937C55.39,84.583,54.658,85.567,51.684,85.567Z" transform="translate(-23.15 -76.752)" fill="#fff"/>
    <path d="M59.808,85.387c-2.015,0-2.951-.78-2.951-2.447V79.2c0-1.667.936-2.447,2.951-2.447h3c.3,0,.432.132.432.432v1.451c0,.3-.132.432-.432.432H60.312c-.5,0-.732.192-.732.6v2.866c0,.407.18.588.551.588H61.3V81.25c0-.3.132-.432.432-.432h1.858c.3,0,.432.132.432.432v3.706c0,.3-.132.431-.432.431Z" transform="translate(-23.15 -76.752)" fill="#fff"/>
    <path d="M67.5,85.387H65.737c-.3,0-.432-.132-.432-.431V81.789a5.569,5.569,0,0,1,.468-1.919l1.043-2.722a.565.565,0,0,1,.612-.4h3.226a.558.558,0,0,1,.6.4L72.3,79.87a5.569,5.569,0,0,1,.468,1.919v3.167c0,.3-.132.431-.432.431H70.522c-.323,0-.467-.132-.467-.431v-1.68H67.932v1.68C67.932,85.255,67.8,85.387,67.5,85.387Zm.552-4.293h1.883l-.564-1.823c-.06-.145-.132-.2-.228-.2h-.3c-.095,0-.168.059-.227.2Z" transform="translate(-23.15 -76.752)" fill="#fff"/>
  </g>
</svg>
